<svg width="15" height="16" viewBox="0 0 15 16" fill="none" xmlns="http://www.w3.org/2000/svg">
<path d="M0.941162 4.23077H14.1176" stroke="#707680" stroke-width="0.823529" stroke-linecap="round" stroke-linejoin="round"/>
<path d="M2.58813 4.23077H12.4705V13.9231C12.4705 14.2087 12.3548 14.4826 12.1489 14.6846C11.943 14.8865 11.6637 15 11.3724 15H3.68617C3.39496 15 3.11567 14.8865 2.90974 14.6846C2.70382 14.4826 2.58813 14.2087 2.58813 13.9231V4.23077Z" stroke="#707680" stroke-width="0.823529" stroke-linecap="round" stroke-linejoin="round"/>
<path d="M4.78369 4.23077V3.69231C4.78369 2.97826 5.07291 2.29346 5.58771 1.78856C6.10252 1.28365 6.80074 1 7.52879 1C8.25683 1 8.95506 1.28365 9.46987 1.78856C9.98467 2.29346 10.2739 2.97826 10.2739 3.69231V4.23077" stroke="#707680" stroke-width="0.823529" stroke-linecap="round" stroke-linejoin="round"/>
<path d="M5.88232 6.38464V12.3077" stroke="#707680" stroke-width="0.823529" stroke-linecap="round" stroke-linejoin="round"/>
<path d="M9.17627 6.38464V12.3077" stroke="#707680" stroke-width="0.823529" stroke-linecap="round" stroke-linejoin="round"/>
</svg>
