<svg width="24" height="24" viewBox="0 0 24 24" fill="none" xmlns="http://www.w3.org/2000/svg">
<rect width="24" height="24" rx="12" fill="#6C67AA"/>
<g clip-path="url(#clip0_36_3623)">
<path d="M13.32 16.5C13.7819 16.798 14.3322 16.9278 14.8786 16.8677C15.4249 16.8076 15.9339 16.5613 16.32 16.17L16.6575 15.84C16.8055 15.6887 16.8883 15.4854 16.8883 15.2738C16.8883 15.0621 16.8055 14.8589 16.6575 14.7075L15.225 13.29C15.0749 13.1425 14.8729 13.0599 14.6625 13.0599C14.4521 13.0599 14.2501 13.1425 14.1 13.29V13.29C13.9486 13.438 13.7454 13.5208 13.5337 13.5208C13.3221 13.5208 13.1188 13.438 12.9675 13.29L10.7175 11.04C10.6424 10.9661 10.5828 10.8779 10.5421 10.7807C10.5015 10.6835 10.4805 10.5791 10.4805 10.4738C10.4805 10.3684 10.5015 10.2641 10.5421 10.1668C10.5828 10.0696 10.6424 9.98149 10.7175 9.90752V9.90752C10.865 9.75744 10.9476 9.55544 10.9476 9.34502C10.9476 9.1346 10.865 8.9326 10.7175 8.78252L9.29249 7.35752C9.14115 7.20956 8.9379 7.12671 8.72624 7.12671C8.51458 7.12671 8.31134 7.20956 8.15999 7.35752L7.82999 7.69502C7.43875 8.08108 7.19237 8.59007 7.13227 9.13642C7.07217 9.68277 7.20202 10.2331 7.49999 10.695C9.05252 12.9831 11.0279 14.9534 13.32 16.5V16.5Z" stroke="white" stroke-linecap="round" stroke-linejoin="round"/>
</g>
<defs>
<clipPath id="clip0_36_3623">
<rect width="10.5" height="10.5" fill="white" transform="translate(6.75 6.75)"/>
</clipPath>
</defs>
</svg>
