<svg width="16" height="16" viewBox="0 0 16 16" fill="none" xmlns="http://www.w3.org/2000/svg">
<path fill-rule="evenodd" clip-rule="evenodd" d="M1.56136 6.91474C1.56136 3.94549 4.02674 1.53015 7.05655 1.53015C10.0856 1.53015 12.551 3.94549 12.551 6.91474C12.551 9.884 10.0856 12.3001 7.05655 12.3001C4.02674 12.3001 1.56136 9.884 1.56136 6.91474ZM16 14.9167L12.4097 11.4073C13.4683 10.1977 14.1123 8.63004 14.1123 6.91474C14.1123 3.10238 10.9467 0 7.05655 0C3.16565 0 0 3.10238 0 6.91474C0 10.7279 3.16565 13.8302 7.05655 13.8302C8.63508 13.8302 10.0895 13.3131 11.266 12.4508L14.8977 16L16 14.9167Z" fill="#F8C625"/>
</svg>
