<svg width="12" height="12" viewBox="0 0 12 12" fill="none" xmlns="http://www.w3.org/2000/svg">
<g clip-path="url(#clip0_29_1828)">
<path d="M11.5715 0.428589H9.42861L8.6829 7.84287C8.6519 8.04726 8.54808 8.23356 8.39057 8.36745C8.23306 8.50133 8.03247 8.57378 7.82575 8.57145H2.42575C2.23884 8.5812 2.05387 8.52951 1.8991 8.42426C1.74432 8.31902 1.62825 8.166 1.56861 7.98859L0.428611 4.56002C0.386107 4.43112 0.374822 4.29396 0.395684 4.15985C0.416546 4.02573 0.46896 3.89849 0.548611 3.78859C0.63159 3.67174 0.742542 3.57757 0.871318 3.51468C1.00009 3.45178 1.14258 3.42219 1.28575 3.42859H9.12861" stroke="#F8C625" stroke-linecap="round" stroke-linejoin="round"/>
<path d="M2.57152 11.5714C2.80821 11.5714 3.00009 11.3796 3.00009 11.1429C3.00009 10.9062 2.80821 10.7143 2.57152 10.7143C2.33482 10.7143 2.14294 10.9062 2.14294 11.1429C2.14294 11.3796 2.33482 11.5714 2.57152 11.5714Z" stroke="#F8C625" stroke-linecap="round" stroke-linejoin="round"/>
<path d="M8.14293 11.5714C8.37962 11.5714 8.5715 11.3796 8.5715 11.1429C8.5715 10.9062 8.37962 10.7143 8.14293 10.7143C7.90623 10.7143 7.71436 10.9062 7.71436 11.1429C7.71436 11.3796 7.90623 11.5714 8.14293 11.5714Z" stroke="#F8C625" stroke-linecap="round" stroke-linejoin="round"/>
</g>
<defs>
<clipPath id="clip0_29_1828">
<rect width="12" height="12" fill="white"/>
</clipPath>
</defs>
</svg>
